<svg width="56" height="56" viewBox="0 0 56 56" fill="none" xmlns="http://www.w3.org/2000/svg">
<g clip-path="url(#clip0_255_9792)">
<path d="M9.3335 18.6667C9.3335 16.1914 10.3168 13.8174 12.0672 12.067C13.8175 10.3167 16.1915 9.33337 18.6668 9.33337H37.3335C39.8089 9.33337 42.1828 10.3167 43.9332 12.067C45.6835 13.8174 46.6668 16.1914 46.6668 18.6667V37.3334C46.6668 39.8087 45.6835 42.1827 43.9332 43.933C42.1828 45.6834 39.8089 46.6667 37.3335 46.6667H18.6668C16.1915 46.6667 13.8175 45.6834 12.0672 43.933C10.3168 42.1827 9.3335 39.8087 9.3335 37.3334V18.6667Z" stroke="#141414" stroke-width="4" stroke-linecap="round" stroke-linejoin="round"/>
<path d="M21 28C21 29.8565 21.7375 31.637 23.0503 32.9497C24.363 34.2625 26.1435 35 28 35C29.8565 35 31.637 34.2625 32.9497 32.9497C34.2625 31.637 35 29.8565 35 28C35 26.1435 34.2625 24.363 32.9497 23.0503C31.637 21.7375 29.8565 21 28 21C26.1435 21 24.363 21.7375 23.0503 23.0503C21.7375 24.363 21 26.1435 21 28Z" stroke="#141414" stroke-width="4" stroke-linecap="round" stroke-linejoin="round"/>
<path d="M38.5 17.5V17.5233" stroke="#141414" stroke-width="4" stroke-linecap="round" stroke-linejoin="round"/>
</g>
<defs>
<clipPath id="clip0_255_9792">
<rect width="56" height="56" fill="white"/>
</clipPath>
</defs>
</svg>
