<svg width="44" height="44" viewBox="0 0 44 44" fill="none" xmlns="http://www.w3.org/2000/svg">
<g clip-path="url(#clip0_278_4020)">
<path d="M5.5 12.8333C5.5 11.8608 5.88631 10.9282 6.57394 10.2406C7.26157 9.55293 8.19421 9.16663 9.16667 9.16663H34.8333C35.8058 9.16663 36.7384 9.55293 37.4261 10.2406C38.1137 10.9282 38.5 11.8608 38.5 12.8333V31.1666C38.5 32.1391 38.1137 33.0717 37.4261 33.7593C36.7384 34.447 35.8058 34.8333 34.8333 34.8333H9.16667C8.19421 34.8333 7.26157 34.447 6.57394 33.7593C5.88631 33.0717 5.5 32.1391 5.5 31.1666V12.8333Z" fill="white"/>
<path d="M5.5 12.8334L22 23.8334L38.5 12.8334" stroke="#141414" stroke-width="1.5" stroke-linecap="round" stroke-linejoin="round"/>
</g>
<defs>
<clipPath id="clip0_278_4020">
<rect width="44" height="44" fill="white"/>
</clipPath>
</defs>
</svg>
