<svg width="44" height="44" viewBox="0 0 44 44" fill="none" xmlns="http://www.w3.org/2000/svg">
<g clip-path="url(#clip0_278_4015)">
<path d="M34.8333 7.33337H27.5L23.8333 16.5L28.4167 19.25C26.4532 23.2312 23.2311 26.4533 19.25 28.4167L16.5 23.8334L7.33333 27.5V34.8334C7.33333 35.8058 7.71964 36.7385 8.40727 37.4261C9.09491 38.1137 10.0275 38.5 11 38.5C18.1513 38.0654 24.8964 35.0286 29.9625 29.9625C35.0286 24.8964 38.0654 18.1514 38.5 11C38.5 10.0276 38.1137 9.09495 37.4261 8.40732C36.7384 7.71968 35.8058 7.33337 34.8333 7.33337Z" fill="white"/>
<path d="M16.5 12.8334C15.5275 12.8334 14.5949 13.2197 13.9073 13.9073C13.2196 14.5949 12.8333 15.5276 12.8333 16.5" stroke="white" stroke-width="1.5" stroke-linecap="round" stroke-linejoin="round"/>
<path d="M16.5 5.5C13.5826 5.5 10.7847 6.65893 8.72182 8.72183C6.65892 10.7847 5.5 13.5826 5.5 16.5" stroke="white" stroke-width="1.5" stroke-linecap="round" stroke-linejoin="round"/>
</g>
<defs>
<clipPath id="clip0_278_4015">
<rect width="44" height="44" fill="white" transform="matrix(-1 0 0 1 44 0)"/>
</clipPath>
</defs>
</svg>
