<svg width="24" height="24" viewBox="0 0 24 24" fill="none" xmlns="http://www.w3.org/2000/svg">
<g clip-path="url(#clip0_254_5608)">
<path d="M19 4H15L13 9L15.5 10.5C14.429 12.6715 12.6715 14.429 10.5 15.5L9 13L4 15V19C4 19.5304 4.21071 20.0391 4.58579 20.4142C4.96086 20.7893 5.46957 21 6 21C9.90074 20.763 13.5798 19.1065 16.3432 16.3432C19.1065 13.5798 20.763 9.90074 21 6C21 5.46957 20.7893 4.96086 20.4142 4.58579C20.0391 4.21071 19.5304 4 19 4Z" stroke="#232323" stroke-width="1.5" stroke-linecap="round" stroke-linejoin="round"/>
</g>
<defs>
<clipPath id="clip0_254_5608">
<rect width="24" height="24" fill="white" transform="matrix(-1 0 0 1 24 0)"/>
</clipPath>
</defs>
</svg>
