<svg width="36" height="37" viewBox="0 0 36 37" fill="none" xmlns="http://www.w3.org/2000/svg">
<path d="M36 18.4292C36 8.48705 27.9422 0.429199 18 0.429199C8.05785 0.429199 0 8.48705 0 18.4292C0 27.4152 6.58125 34.8612 15.1875 36.2113V23.6323H10.6172V18.4292H15.1875V14.4636C15.1875 9.953 17.8735 7.46045 21.9867 7.46045C23.9555 7.46045 26.0156 7.81201 26.0156 7.81201V12.2417H23.7446C21.5086 12.2417 20.8125 13.6304 20.8125 15.0542V18.4292H25.8046L25.0067 23.6323H20.8125V36.2113C29.4188 34.8612 36 27.4152 36 18.4292Z" fill="#1877F2"/>
<path d="M25.0067 23.6323L25.8047 18.4292H20.8125V15.0542C20.8125 13.6304 21.5086 12.2417 23.7446 12.2417H26.0157V7.81201C26.0157 7.81201 23.9555 7.46045 21.9867 7.46045C17.8735 7.46045 15.1875 9.953 15.1875 14.4636V18.4292H10.6172V23.6323H15.1875V36.2113C16.1051 36.3554 17.0438 36.4292 18 36.4292C18.9563 36.4292 19.895 36.3554 20.8125 36.2113V23.6323H25.0067Z" fill="white"/>
</svg>
