<svg width="26" height="26" viewBox="0 0 26 26" fill="none" xmlns="http://www.w3.org/2000/svg">
<rect width="26" height="26" rx="4.66666" fill="white"/>
<path d="M4.67188 12.6666C4.67187 13.7172 4.8788 14.7575 5.28084 15.7281C5.68288 16.6987 6.27215 17.5806 7.01502 18.3235C7.75789 19.0663 8.6398 19.6556 9.61041 20.0577C10.581 20.4597 11.6213 20.6666 12.6719 20.6666C13.7225 20.6666 14.7627 20.4597 15.7333 20.0577C16.7039 19.6556 17.5859 19.0663 18.3287 18.3235C19.0716 17.5806 19.6609 16.6987 20.0629 15.7281C20.4649 14.7575 20.6719 13.7172 20.6719 12.6666C20.6719 11.6161 20.4649 10.5758 20.0629 9.60516C19.6609 8.63455 19.0716 7.75264 18.3287 7.00977C17.5859 6.2669 16.7039 5.67763 15.7333 5.27559C14.7627 4.87355 13.7225 4.66663 12.6719 4.66663C11.6213 4.66663 10.581 4.87355 9.61041 5.27559C8.6398 5.67763 7.75789 6.2669 7.01502 7.00977C6.27215 7.75264 5.68288 8.63455 5.28084 9.60516C4.8788 10.5758 4.67187 11.6161 4.67188 12.6666Z" stroke="#141414" stroke-width="1.33333" stroke-linecap="round" stroke-linejoin="round"/>
<path d="M12.673 17.1111L11.7841 13.5555L8.22852 12.6666L16.2285 9.11108L12.673 17.1111Z" stroke="#141414" stroke-width="1.33333" stroke-linecap="round" stroke-linejoin="round"/>
</svg>
