<svg width="26" height="26" viewBox="0 0 26 26" fill="none" xmlns="http://www.w3.org/2000/svg">
<rect width="26" height="26" rx="4.66666" fill="white"/>
<g clip-path="url(#clip0_278_3938)">
<path d="M4.67188 10.8889C4.67187 11.706 4.83282 12.5151 5.14551 13.27C5.45821 14.0249 5.91653 14.7109 6.49432 15.2887C7.07211 15.8664 7.75804 16.3248 8.51296 16.6375C9.26787 16.9502 10.077 17.1111 10.8941 17.1111C11.7112 17.1111 12.5203 16.9502 13.2752 16.6375C14.0302 16.3248 14.7161 15.8664 15.2939 15.2887C15.8717 14.7109 16.33 14.0249 16.6427 13.27C16.9554 12.5151 17.1163 11.706 17.1163 10.8889C17.1163 10.0718 16.9554 9.26265 16.6427 8.50774C16.33 7.75282 15.8717 7.06689 15.2939 6.4891C14.7161 5.91132 14.0302 5.45299 13.2752 5.14029C12.5203 4.8276 11.7112 4.66666 10.8941 4.66666C10.077 4.66666 9.26787 4.8276 8.51296 5.14029C7.75804 5.45299 7.07211 5.91132 6.49432 6.4891C5.91653 7.06689 5.45821 7.75282 5.14551 8.50774C4.83282 9.26265 4.67187 10.0718 4.67188 10.8889Z" stroke="#141414" stroke-width="1.33333" stroke-linecap="round" stroke-linejoin="round"/>
<path d="M8.22852 10.8889H13.5618" stroke="#141414" stroke-width="1.33333" stroke-linecap="round" stroke-linejoin="round"/>
<path d="M10.8945 8.22223V13.5556" stroke="#141414" stroke-width="1.33333" stroke-linecap="round" stroke-linejoin="round"/>
<path d="M20.6732 20.6667L15.3398 15.3333" stroke="#141414" stroke-width="2" stroke-linecap="round" stroke-linejoin="round"/>
</g>
<defs>
<clipPath id="clip0_278_3938">
<rect width="21.3333" height="21.3333" fill="white" transform="translate(2.00586 2)"/>
</clipPath>
</defs>
</svg>
