<svg width="26" height="26" viewBox="0 0 26 26" fill="none" xmlns="http://www.w3.org/2000/svg">
<rect width="26" height="26" rx="4.66666" fill="white"/>
<path d="M5.55295 5.55561V4.66672H4.66406V5.55561H5.55295ZM12.0356 13.2952C12.2033 13.4571 12.4278 13.5467 12.6609 13.5447C12.8939 13.5426 13.1169 13.4491 13.2817 13.2843C13.4465 13.1195 13.54 12.8966 13.542 12.6635C13.544 12.4305 13.4544 12.2059 13.2925 12.0383L12.0356 13.2952ZM6.44184 10.8889V5.55561H4.66406V10.8889H6.44184ZM5.55295 6.4445H10.8863V4.66672H5.55295V6.4445ZM4.92451 6.18405L12.0356 13.2952L13.2925 12.0383L6.1814 4.92716L4.92451 6.18405Z" fill="#141414"/>
<path d="M5.55295 19.7778V20.6667H4.66406V19.7778H5.55295ZM12.0356 12.0383C12.2033 11.8764 12.4278 11.7868 12.6609 11.7888C12.8939 11.7908 13.1169 11.8843 13.2817 12.0491C13.4465 12.2139 13.54 12.4369 13.542 12.6699C13.544 12.903 13.4544 13.1275 13.2925 13.2952L12.0356 12.0383ZM6.44184 14.4445V19.7778H4.66406V14.4445H6.44184ZM5.55295 18.8889H10.8863V20.6667H5.55295V18.8889ZM4.92451 19.1494L12.0356 12.0383L13.2925 13.2952L6.1814 20.4063L4.92451 19.1494Z" fill="#141414"/>
<path d="M19.782 5.55561V4.66672H20.6709V5.55561H19.782ZM13.2994 13.2952C13.1317 13.4571 12.9072 13.5467 12.6741 13.5447C12.4411 13.5426 12.2181 13.4491 12.0533 13.2843C11.8885 13.1195 11.795 12.8966 11.793 12.6635C11.791 12.4305 11.8806 12.2059 12.0425 12.0383L13.2994 13.2952ZM18.8932 10.8889V5.55561H20.6709V10.8889H18.8932ZM19.782 6.4445H14.4487V4.66672H19.782V6.4445ZM20.4105 6.18405L13.2994 13.2952L12.0425 12.0383L19.1536 4.92716L20.4105 6.18405Z" fill="#141414"/>
<path d="M19.782 19.7778V20.6667H20.6709V19.7778H19.782ZM13.2994 12.0383C13.1317 11.8764 12.9072 11.7868 12.6741 11.7888C12.4411 11.7908 12.2181 11.8843 12.0533 12.0491C11.8885 12.2139 11.795 12.4369 11.793 12.6699C11.791 12.903 11.8806 13.1275 12.0425 13.2952L13.2994 12.0383ZM18.8932 14.4445V19.7778H20.6709V14.4445H18.8932ZM19.782 18.8889H14.4487V20.6667H19.782V18.8889ZM20.4105 19.1494L13.2994 12.0383L12.0425 13.2952L19.1536 20.4063L20.4105 19.1494Z" fill="#141414"/>
</svg>
