<svg width="24" height="24" viewBox="0 0 24 24" fill="none" xmlns="http://www.w3.org/2000/svg">
<g clip-path="url(#clip0_201_2722)">
<path d="M12.0004 2.39999C17.3044 2.39999 21.6004 6.69599 21.6004 12C21.6004 17.304 17.3044 21.6 12.0004 21.6C6.69639 21.6 2.40039 17.304 2.40039 12C2.40039 6.69599 6.69639 2.39999 12.0004 2.39999ZM13.2004 7.19999C13.2004 6.53999 12.6604 5.99999 12.0004 5.99999C11.3404 5.99999 10.8004 6.53999 10.8004 7.19999C10.8004 7.85999 11.3404 8.39999 12.0004 8.39999C12.6604 8.39999 13.2004 7.85999 13.2004 7.19999ZM13.2004 18V10.8H10.8004V18H13.2004Z" fill="black"/>
</g>
<defs>
<clipPath id="clip0_201_2722">
<rect width="24" height="24" fill="white"/>
</clipPath>
</defs>
</svg>
