<svg width="36" height="37" viewBox="0 0 36 37" fill="none" xmlns="http://www.w3.org/2000/svg">
<path d="M18.0013 0.429199C13.1128 0.429199 12.4993 0.450575 10.5792 0.53795C8.66297 0.6257 7.35495 0.929074 6.21044 1.3742C5.02655 1.83395 4.02229 2.44895 3.02178 3.44982C2.02052 4.45032 1.40551 5.45457 0.94426 6.63807C0.498005 7.78295 0.194252 9.09133 0.108001 11.0068C0.0225003 12.9268 0 13.5407 0 18.4292C0 23.3177 0.0217506 23.9293 0.108751 25.8493C0.196877 27.7656 0.500255 29.0736 0.94501 30.2181C1.40514 31.402 2.02015 32.4062 3.02103 33.4067C4.02117 34.408 5.02543 35.0245 6.20857 35.4842C7.35383 35.9293 8.66222 36.2327 10.5781 36.3204C12.4981 36.4078 13.1113 36.4292 17.9994 36.4292C22.8884 36.4292 23.5 36.4078 25.42 36.3204C27.3363 36.2327 28.6458 35.9293 29.7911 35.4842C30.9746 35.0245 31.9773 34.408 32.9775 33.4067C33.9787 32.4062 34.5937 31.402 35.055 30.2185C35.4975 29.0736 35.8012 27.7652 35.8913 25.8497C35.9775 23.9297 36 23.3177 36 18.4292C36 13.5407 35.9775 12.9272 35.8913 11.0072C35.8012 9.09095 35.4975 7.78295 35.055 6.63845C34.5937 5.45457 33.9787 4.45032 32.9775 3.44982C31.9762 2.44857 30.975 1.83357 29.7899 1.3742C28.6424 0.929074 27.3337 0.6257 25.4174 0.53795C23.4974 0.450575 22.8861 0.429199 17.9961 0.429199H18.0013ZM16.3865 3.67295C16.8658 3.6722 17.4006 3.67295 18.0013 3.67295C22.8074 3.67295 23.377 3.6902 25.2749 3.77645C27.0299 3.8567 27.9824 4.14995 28.6169 4.39632C29.4569 4.72257 30.0558 5.11257 30.6854 5.74257C31.3155 6.37257 31.7055 6.97257 32.0325 7.81257C32.2788 8.44632 32.5725 9.39882 32.6523 11.1538C32.7386 13.0513 32.7573 13.6213 32.7573 18.4251C32.7573 23.2288 32.7386 23.7988 32.6523 25.6963C32.5721 27.4513 32.2788 28.4038 32.0325 29.0376C31.7062 29.8776 31.3155 30.4757 30.6854 31.1053C30.0554 31.7353 29.4573 32.1253 28.6169 32.4516C27.9832 32.6991 27.0299 32.9916 25.2749 33.0718C23.3774 33.1581 22.8074 33.1768 18.0013 33.1768C13.1949 33.1768 12.6253 33.1581 10.7277 33.0718C8.97272 32.9908 8.02021 32.6976 7.38533 32.4512C6.54532 32.1249 5.94531 31.735 5.31531 31.1049C4.6853 30.4749 4.2953 29.8765 3.96829 29.0361C3.72191 28.4023 3.42829 27.4498 3.34841 25.6948C3.26216 23.7973 3.24491 23.2273 3.24491 18.4206C3.24491 13.6138 3.26216 13.0468 3.34841 11.1493C3.42866 9.39433 3.72191 8.44182 3.96829 7.80732C4.29455 6.96732 4.6853 6.36732 5.31531 5.73732C5.94531 5.10732 6.54532 4.71732 7.38533 4.39032C8.01983 4.14282 8.97272 3.85032 10.7277 3.7697C12.3883 3.6947 13.0318 3.6722 16.3865 3.66845V3.67295Z" fill="url(#paint0_radial_278_4011)"/>
<path d="M27.571 6.61748C27.1437 6.61748 26.7261 6.74418 26.3708 6.98156C26.0156 7.21894 25.7387 7.55633 25.5753 7.95106C25.4118 8.34579 25.3691 8.78013 25.4525 9.19915C25.5359 9.61817 25.7417 10.003 26.0439 10.3051C26.346 10.6072 26.731 10.8128 27.15 10.8961C27.5691 10.9793 28.0034 10.9364 28.3981 10.7728C28.7928 10.6092 29.1301 10.3323 29.3673 9.97697C29.6046 9.62166 29.7311 9.20397 29.731 8.77673C29.731 7.58423 28.7635 6.61673 27.571 6.61673V6.61748Z" fill="url(#paint1_radial_278_4011)"/>
<path fill-rule="evenodd" clip-rule="evenodd" d="M17.9626 9.14123C12.8577 9.14123 8.71876 13.2801 8.71876 18.385C8.71876 23.4899 12.8577 27.6269 17.9626 27.6269C23.0675 27.6269 27.2053 23.4899 27.2053 18.385C27.2053 13.2801 23.0675 9.14123 17.9626 9.14123ZM18 24.3355C21.2619 24.3355 23.9063 21.6912 23.9063 18.4292C23.9063 15.1673 21.2619 12.523 18 12.523C14.7381 12.523 12.0938 15.1673 12.0938 18.4292C12.0938 21.6912 14.7381 24.3355 18 24.3355Z" fill="url(#paint2_radial_278_4011)"/>
<path d="M18.0013 0.429199C13.1128 0.429199 12.4993 0.450575 10.5792 0.53795C8.66297 0.6257 7.35495 0.929074 6.21044 1.3742C5.02655 1.83395 4.02229 2.44895 3.02178 3.44982C2.02052 4.45032 1.40551 5.45457 0.94426 6.63807C0.498005 7.78295 0.194252 9.09133 0.108001 11.0068C0.0225003 12.9268 0 13.5407 0 18.4292C0 23.3177 0.0217506 23.9293 0.108751 25.8493C0.196877 27.7656 0.500255 29.0736 0.94501 30.2181C1.40514 31.402 2.02015 32.4062 3.02103 33.4067C4.02117 34.408 5.02543 35.0245 6.20857 35.4842C7.35383 35.9293 8.66222 36.2327 10.5781 36.3204C12.4981 36.4078 13.1113 36.4292 17.9994 36.4292C22.8884 36.4292 23.5 36.4078 25.42 36.3204C27.3363 36.2327 28.6458 35.9293 29.7911 35.4842C30.9746 35.0245 31.9773 34.408 32.9775 33.4067C33.9787 32.4062 34.5937 31.402 35.055 30.2185C35.4975 29.0736 35.8012 27.7652 35.8913 25.8497C35.9775 23.9297 36 23.3177 36 18.4292C36 13.5407 35.9775 12.9272 35.8913 11.0072C35.8012 9.09095 35.4975 7.78295 35.055 6.63845C34.5937 5.45457 33.9787 4.45032 32.9775 3.44982C31.9762 2.44857 30.975 1.83357 29.7899 1.3742C28.6424 0.929074 27.3337 0.6257 25.4174 0.53795C23.4974 0.450575 22.8861 0.429199 17.9961 0.429199H18.0013ZM16.3865 3.67295C16.8658 3.6722 17.4006 3.67295 18.0013 3.67295C22.8074 3.67295 23.377 3.6902 25.2749 3.77645C27.0299 3.8567 27.9824 4.14995 28.6169 4.39632C29.4569 4.72257 30.0558 5.11257 30.6854 5.74257C31.3155 6.37257 31.7055 6.97257 32.0325 7.81257C32.2788 8.44632 32.5725 9.39882 32.6523 11.1538C32.7386 13.0513 32.7573 13.6213 32.7573 18.4251C32.7573 23.2288 32.7386 23.7988 32.6523 25.6963C32.5721 27.4513 32.2788 28.4038 32.0325 29.0376C31.7062 29.8776 31.3155 30.4757 30.6854 31.1053C30.0554 31.7353 29.4573 32.1253 28.6169 32.4516C27.9832 32.6991 27.0299 32.9916 25.2749 33.0718C23.3774 33.1581 22.8074 33.1768 18.0013 33.1768C13.1949 33.1768 12.6253 33.1581 10.7277 33.0718C8.97272 32.9908 8.02021 32.6976 7.38533 32.4512C6.54532 32.1249 5.94531 31.735 5.31531 31.1049C4.6853 30.4749 4.2953 29.8765 3.96829 29.0361C3.72191 28.4023 3.42829 27.4498 3.34841 25.6948C3.26216 23.7973 3.24491 23.2273 3.24491 18.4206C3.24491 13.6138 3.26216 13.0468 3.34841 11.1493C3.42866 9.39433 3.72191 8.44182 3.96829 7.80732C4.29455 6.96732 4.6853 6.36732 5.31531 5.73732C5.94531 5.10732 6.54532 4.71732 7.38533 4.39032C8.01983 4.14282 8.97272 3.85032 10.7277 3.7697C12.3883 3.6947 13.0318 3.6722 16.3865 3.66845V3.67295Z" fill="url(#paint3_radial_278_4011)"/>
<path d="M27.571 6.61748C27.1437 6.61748 26.7261 6.74418 26.3708 6.98156C26.0156 7.21894 25.7387 7.55633 25.5753 7.95106C25.4118 8.34579 25.3691 8.78013 25.4525 9.19915C25.5359 9.61817 25.7417 10.003 26.0439 10.3051C26.346 10.6072 26.731 10.8128 27.15 10.8961C27.5691 10.9793 28.0034 10.9364 28.3981 10.7728C28.7928 10.6092 29.1301 10.3323 29.3673 9.97697C29.6046 9.62166 29.7311 9.20397 29.731 8.77673C29.731 7.58423 28.7635 6.61673 27.571 6.61673V6.61748Z" fill="url(#paint4_radial_278_4011)"/>
<path fill-rule="evenodd" clip-rule="evenodd" d="M17.9626 9.14123C12.8577 9.14123 8.71876 13.2801 8.71876 18.385C8.71876 23.4899 12.8577 27.6269 17.9626 27.6269C23.0675 27.6269 27.2053 23.4899 27.2053 18.385C27.2053 13.2801 23.0675 9.14123 17.9626 9.14123ZM18 24.3355C21.2619 24.3355 23.9063 21.6912 23.9063 18.4292C23.9063 15.1673 21.2619 12.523 18 12.523C14.7381 12.523 12.0938 15.1673 12.0938 18.4292C12.0938 21.6912 14.7381 24.3355 18 24.3355Z" fill="url(#paint5_radial_278_4011)"/>
<defs>
<radialGradient id="paint0_radial_278_4011" cx="0" cy="0" r="1" gradientUnits="userSpaceOnUse" gradientTransform="translate(9.56255 39.202) rotate(-90) scale(35.6787 33.184)">
<stop stop-color="#FFDD55"/>
<stop offset="0.1" stop-color="#FFDD55"/>
<stop offset="0.5" stop-color="#FF543E"/>
<stop offset="1" stop-color="#C837AB"/>
</radialGradient>
<radialGradient id="paint1_radial_278_4011" cx="0" cy="0" r="1" gradientUnits="userSpaceOnUse" gradientTransform="translate(9.56255 39.202) rotate(-90) scale(35.6787 33.184)">
<stop stop-color="#FFDD55"/>
<stop offset="0.1" stop-color="#FFDD55"/>
<stop offset="0.5" stop-color="#FF543E"/>
<stop offset="1" stop-color="#C837AB"/>
</radialGradient>
<radialGradient id="paint2_radial_278_4011" cx="0" cy="0" r="1" gradientUnits="userSpaceOnUse" gradientTransform="translate(9.56255 39.202) rotate(-90) scale(35.6787 33.184)">
<stop stop-color="#FFDD55"/>
<stop offset="0.1" stop-color="#FFDD55"/>
<stop offset="0.5" stop-color="#FF543E"/>
<stop offset="1" stop-color="#C837AB"/>
</radialGradient>
<radialGradient id="paint3_radial_278_4011" cx="0" cy="0" r="1" gradientUnits="userSpaceOnUse" gradientTransform="translate(-6.03019 3.02258) rotate(78.6806) scale(15.9485 65.7404)">
<stop stop-color="#3771C8"/>
<stop offset="0.128" stop-color="#3771C8"/>
<stop offset="1" stop-color="#6600FF" stop-opacity="0"/>
</radialGradient>
<radialGradient id="paint4_radial_278_4011" cx="0" cy="0" r="1" gradientUnits="userSpaceOnUse" gradientTransform="translate(-6.03019 3.02258) rotate(78.6806) scale(15.9485 65.7404)">
<stop stop-color="#3771C8"/>
<stop offset="0.128" stop-color="#3771C8"/>
<stop offset="1" stop-color="#6600FF" stop-opacity="0"/>
</radialGradient>
<radialGradient id="paint5_radial_278_4011" cx="0" cy="0" r="1" gradientUnits="userSpaceOnUse" gradientTransform="translate(-6.03019 3.02258) rotate(78.6806) scale(15.9485 65.7404)">
<stop stop-color="#3771C8"/>
<stop offset="0.128" stop-color="#3771C8"/>
<stop offset="1" stop-color="#6600FF" stop-opacity="0"/>
</radialGradient>
</defs>
</svg>
