<svg width="22" height="22" viewBox="0 0 22 22" fill="none" xmlns="http://www.w3.org/2000/svg">
<path d="M8.25 10.0833C8.25 10.8127 8.53973 11.5121 9.05546 12.0279C9.57118 12.5436 10.2707 12.8333 11 12.8333C11.7293 12.8333 12.4288 12.5436 12.9445 12.0279C13.4603 11.5121 13.75 10.8127 13.75 10.0833C13.75 9.35397 13.4603 8.65449 12.9445 8.13877C12.4288 7.62304 11.7293 7.33331 11 7.33331C10.2707 7.33331 9.57118 7.62304 9.05546 8.13877C8.53973 8.65449 8.25 9.35397 8.25 10.0833Z" stroke="#232323" stroke-width="1.5" stroke-linecap="round" stroke-linejoin="round"/>
<path d="M16.1854 15.2686L12.296 19.1581C11.9522 19.5015 11.4862 19.6944 11.0003 19.6944C10.5144 19.6944 10.0484 19.5015 9.70459 19.1581L5.81426 15.2686C4.78871 14.243 4.09032 12.9364 3.80739 11.5139C3.52446 10.0913 3.66971 8.61687 4.22476 7.2769C4.77981 5.93693 5.71975 4.79164 6.9257 3.98586C8.13165 3.18008 9.54946 2.75 10.9998 2.75C12.4502 2.75 13.868 3.18008 15.074 3.98586C16.2799 4.79164 17.2199 5.93693 17.7749 7.2769C18.33 8.61687 18.4752 10.0913 18.1923 11.5139C17.9094 12.9364 17.211 14.243 16.1854 15.2686Z" stroke="#232323" stroke-width="1.5" stroke-linecap="round" stroke-linejoin="round"/>
</svg>
