<svg width="32" height="32" viewBox="0 0 32 32" fill="none" xmlns="http://www.w3.org/2000/svg">
<g clip-path="url(#clip0_278_3919)">
<path d="M28 13.3333C28 14.559 27.7586 15.7727 27.2895 16.905C26.8205 18.0374 26.133 19.0663 25.2663 19.933C24.3997 20.7997 23.3708 21.4872 22.2384 21.9562C21.106 22.4253 19.8923 22.6667 18.6667 22.6667C17.441 22.6667 16.2273 22.4253 15.095 21.9562C13.9626 21.4872 12.9337 20.7997 12.067 19.933C11.2003 19.0663 10.5128 18.0374 10.0438 16.905C9.57475 15.7727 9.33333 14.559 9.33333 13.3333C9.33333 12.1077 9.57475 10.894 10.0438 9.76162C10.5128 8.62925 11.2003 7.60035 12.067 6.73367C12.9337 5.86699 13.9626 5.1795 15.095 4.71046C16.2273 4.24141 17.441 4 18.6667 4C19.8923 4 21.106 4.24141 22.2384 4.71046C23.3708 5.1795 24.3997 5.86699 25.2663 6.73367C26.133 7.60035 26.8205 8.62925 27.2895 9.76162C27.7586 10.894 28 12.1077 28 13.3333Z" stroke="#141414" stroke-width="3" stroke-linecap="round" stroke-linejoin="round"/>
<path d="M4 28L12 20" stroke="#141414" stroke-width="3" stroke-linecap="round" stroke-linejoin="round"/>
</g>
<defs>
<clipPath id="clip0_278_3919">
<rect width="32" height="32" fill="white" transform="matrix(-1 0 0 1 32 0)"/>
</clipPath>
</defs>
</svg>
