<svg width="652" height="51" viewBox="0 0 652 51" fill="none" xmlns="http://www.w3.org/2000/svg">
<rect width="652" height="51" rx="25.5" fill="#D9D9D9"/>
<g clip-path="url(#clip0_278_3851)">
<path d="M625 22.3333C625 23.559 624.759 24.7727 624.29 25.905C623.82 27.0374 623.133 28.0663 622.266 28.933C621.4 29.7997 620.371 30.4872 619.238 30.9562C618.106 31.4253 616.892 31.6667 615.667 31.6667C614.441 31.6667 613.227 31.4253 612.095 30.9562C610.963 30.4872 609.934 29.7997 609.067 28.933C608.2 28.0663 607.513 27.0374 607.044 25.905C606.575 24.7727 606.333 23.559 606.333 22.3333C606.333 21.1077 606.575 19.894 607.044 18.7616C607.513 17.6292 608.2 16.6003 609.067 15.7337C609.934 14.867 610.963 14.1795 612.095 13.7105C613.227 13.2414 614.441 13 615.667 13C616.892 13 618.106 13.2414 619.238 13.7105C620.371 14.1795 621.4 14.867 622.266 15.7337C623.133 16.6003 623.82 17.6292 624.29 18.7616C624.759 19.894 625 21.1077 625 22.3333Z" stroke="#141414" stroke-width="3" stroke-linecap="round" stroke-linejoin="round"/>
<path d="M601 37L609 29" stroke="#141414" stroke-width="3" stroke-linecap="round" stroke-linejoin="round"/>
</g>
<defs>
<clipPath id="clip0_278_3851">
<rect width="32" height="32" fill="white" transform="matrix(-1 0 0 1 629 9)"/>
</clipPath>
</defs>
</svg>
