<svg width="36" height="37" viewBox="0 0 36 37" fill="none" xmlns="http://www.w3.org/2000/svg">
<path d="M0 18.4292C0 8.48807 8.05887 0.429199 18 0.429199C27.9411 0.429199 36 8.48807 36 18.4292C36 28.3703 27.9411 36.4292 18 36.4292C8.05887 36.4292 0 28.3703 0 18.4292Z" fill="#55ACEE"/>
<path d="M17.4609 15.0599L17.4987 15.6827L16.8691 15.6064C14.5776 15.3141 12.5757 14.3226 10.876 12.6575L10.045 11.8313L9.83098 12.4414C9.37772 13.8015 9.6673 15.2378 10.6116 16.2039C11.1152 16.7377 11.0019 16.814 10.1332 16.4962C9.83098 16.3945 9.56658 16.3183 9.5414 16.3564C9.45326 16.4454 9.75544 17.6021 9.99466 18.0597C10.322 18.6952 10.9893 19.3181 11.7196 19.6867L12.3365 19.979L11.6063 19.9918C10.9012 19.9918 10.876 20.0045 10.9515 20.2714C11.2034 21.0976 12.198 21.9747 13.306 22.356L14.0866 22.6229L13.4067 23.0297C12.3995 23.6144 11.216 23.9449 10.0324 23.9703C9.46585 23.983 9 24.0339 9 24.072C9 24.1991 10.5361 24.9109 11.43 25.1906C14.1118 26.0168 17.2972 25.6609 19.6894 24.25C21.3892 23.2458 23.0889 21.2501 23.8821 19.3181C24.3102 18.2885 24.7383 16.4072 24.7383 15.5048C24.7383 14.9201 24.7761 14.8438 25.4811 14.1447C25.8966 13.7379 26.2869 13.293 26.3625 13.1659C26.4884 12.9244 26.4758 12.9244 25.8337 13.1405C24.7635 13.5218 24.6124 13.471 25.1412 12.899C25.5315 12.4922 25.9973 11.755 25.9973 11.5389C25.9973 11.5008 25.8085 11.5643 25.5944 11.6787C25.3678 11.8058 24.8642 11.9965 24.4865 12.1109L23.8066 12.327L23.1896 11.9075C22.8497 11.6787 22.3712 11.4245 22.1194 11.3483C21.4773 11.1703 20.4952 11.1957 19.9161 11.3991C18.3422 11.9711 17.3476 13.4456 17.4609 15.0599Z" fill="white"/>
</svg>
