<svg width="36" height="37" viewBox="0 0 36 37" fill="none" xmlns="http://www.w3.org/2000/svg">
<path d="M36 18.4292C36 8.48807 27.9411 0.429199 18 0.429199C8.05887 0.429199 0 8.48807 0 18.4292C0 28.3703 8.05887 36.4292 18 36.4292C27.9411 36.4292 36 28.3703 36 18.4292Z" fill="#FF0000"/>
<path d="M17.9922 9.93591C17.9922 9.93591 10.4059 9.93592 8.50187 10.4307C7.48238 10.7155 6.64291 11.555 6.35805 12.5895C5.86329 14.4936 5.86328 18.4367 5.86328 18.4367C5.86328 18.4367 5.86329 22.3948 6.35805 24.2689C6.64291 25.3034 7.46739 26.1278 8.50187 26.4127C10.4209 26.9225 17.9922 26.9225 17.9922 26.9225C17.9922 26.9225 25.5935 26.9225 27.4975 26.4277C28.532 26.1429 29.3565 25.3334 29.6263 24.2839C30.1361 22.3948 30.1361 18.4517 30.1361 18.4517C30.1361 18.4517 30.1511 14.4936 29.6263 12.5895C29.3565 11.555 28.532 10.7305 27.4975 10.4607C25.5935 9.93594 17.9922 9.93591 17.9922 9.93591ZM15.5784 14.7936L21.8903 18.4367L15.5784 22.0648V14.7936Z" fill="white"/>
</svg>
